<?xml version="1.0"?>
<svg version="1.1" xmlns="http://www.w3.org/2000/svg" width="400" height="50" style=""><path fill="#c73243" d="M16.0126953125,36.7041015625q0-3.6025390625,0.32373046875-7.21337890625t1.35302734375-7.11376953125q0.298828125-1.0458984375,0.7802734375-2.06689453125t1.1787109375-1.81787109375t1.66015625-1.294921875t2.291015625-0.498046875l0.3486328125,0.033203125q1.427734375,0.19921875,2.1083984375,1.15380859375t0.6806640625,2.38232421875q0,0.3818359375-0.09130859375,0.95458984375t-0.29052734375,1.10400390625t-0.53955078125,0.90478515625t-0.85498046875,0.37353515625q-0.232421875-0.033203125-0.42333984375-0.0830078125t-0.35693359375-0.2158203125q0.265625-0.5810546875,0.47314453125-1.2119140625t0.20751953125-1.4443359375q0-0.298828125-0.0498046875-0.763671875t-0.19091796875-0.92138671875t-0.37353515625-0.796875t-0.6474609375-0.34033203125q-1.0458984375,0-1.759765625,1.17041015625t-1.1953125,2.98828125t-0.7138671875,4.017578125t-0.35693359375,4.25t-0.14111328125,3.7021484375t-0.0166015625,2.33251953125q0,0.796875-0.0166015625,1.759765625l0,0.2158203125q0.0166015625,0.8466796875,0.1162109375,1.6103515625q0.1328125,0.86328125,0.5146484375,1.494140625t1.1953125,0.73046875q0.2490234375,0.033203125,0.4814453125,0.033203125q0.962890625,0,1.7431640625-0.5478515625q0.962890625-0.6806640625,1.7099609375-1.76806640625t1.328125-2.390625t1.07080078125-2.46533203125t0.95458984375-1.92578125t0.962890625-0.763671875q0.166015625,0,0.498046875,0.06640625t0.33203125,0.3154296875q0,0.06640625-0.033203125,0.1826171875t-0.0830078125,0.1826171875q-0.4482421875,1.759765625-1.13720703125,3.65234375t-1.759765625,3.44482421875t-2.623046875,2.53173828125t-3.72705078125,0.9794921875q-1.560546875,0-2.53173828125-0.58935546875t-1.494140625-1.5771484375t-0.7138671875-2.23291015625t-0.19091796875-2.5234375z M33.704482421875,35.8076171875q0-1.12890625,0.30712890625-2.1748046875t0.92138671875-1.86767578125t1.53564453125-1.3115234375t2.13330078125-0.48974609375q0.7470703125,0,1.65185546875,0.22412109375t1.70166015625,0.6640625t1.328125,1.12060546875t0.53125,1.560546875q0,0.4150390625-0.14111328125,0.630859375t-0.57275390625,0.2158203125l-0.1826171875-0.033203125q0.4814453125,1.294921875,0.830078125,2.65625t0.6806640625,2.72265625q0.1328125,0.265625,0.19921875,0.47314453125t0.06640625,0.40673828125q0,0.265625-0.1494140625,0.43994140625t-0.39013671875,0.25732421875t-0.498046875,0.1162109375t-0.45654296875,0.033203125q-0.7138671875,0-1.07080078125-0.2490234375t-0.5146484375-0.6806640625t-0.19091796875-0.97119140625t-0.1328125-1.08740234375q-0.19921875,0.6474609375-0.52294921875,1.26171875t-0.763671875,1.10400390625t-1.03759765625,0.7802734375t-1.3447265625,0.29052734375q-1.095703125,0-1.8427734375-0.630859375t-1.20361328125-1.55224609375t-0.6640625-1.96728515625t-0.20751953125-1.9423828125z M36.061904296875,35.5751953125q0,0.6142578125,0.0830078125,1.294921875t0.27392578125,1.3447265625t0.48974609375,1.25341796875t0.7470703125,1.03759765625q0.8134765625-0.8798828125,1.20361328125-2.1416015625t0.697265625-2.43212890625t0.697265625-2.0087890625t1.20361328125-0.83837890625q0.5146484375,0,0.86328125,0.1826171875q-0.166015625-0.4150390625-0.5478515625-0.80517578125t-0.85498046875-0.7138671875t-0.9794921875-0.53125t-0.95458984375-0.20751953125q-0.1328125,0-0.30712890625,0.04150390625t-0.27392578125,0.00830078125q-0.6806640625,0.19921875-1.12060546875,0.68896484375t-0.7138671875,1.15380859375t-0.39013671875,1.361328125t-0.1162109375,1.3115234375z M48.09255859375,31.5244140625q0-0.6806640625,0.3984375-1.17041015625t0.97119140625-0.796875t1.25341796875-0.45654296875t1.26171875-0.1494140625q0.4482421875,0,1.1953125,0.1328125t1.4609375,0.3984375t1.23681640625,0.697265625t0.52294921875,1.0126953125q0,0.265625-0.19921875,0.47314453125t-0.4150390625,0.20751953125q-0.4482421875,0-0.8134765625-0.29052734375t-0.75537109375-0.6142578125t-0.85498046875-0.6142578125t-1.0458984375-0.29052734375t-1.05419921875,0.37353515625t-0.47314453125,0.98779296875q0,1.0126953125,0.7138671875,1.98388671875t1.56884765625,2.0419921875t1.56884765625,2.24951171875t0.7138671875,2.6064453125q0,0.6142578125-0.25732421875,1.03759765625t-0.6806640625,0.68896484375t-0.95458984375,0.40673828125t-1.029296875,0.14111328125q-0.5478515625,0-1.2783203125-0.25732421875t-1.3779296875-0.6806640625t-1.08740234375-0.98779296875t-0.43994140625-1.1787109375q0-0.298828125,0.42333984375-0.3818359375t0.62255859375-0.0830078125q0.099609375,0,0.30712890625,0.06640625t0.40673828125,0.1494140625t0.35693359375,0.1826171875t0.12451171875,0.2158203125q0.166015625,0.19921875,0.50634765625,0.58935546875t0.6806640625,0.630859375t0.59765625,0.17431640625t0.25732421875-0.7470703125q0-1.294921875-0.697265625-2.38232421875t-1.51904296875-2.125t-1.51904296875-2.05859375t-0.697265625-2.18310546875z M59.791181640625,35.8076171875q0-1.12890625,0.30712890625-2.1748046875t0.92138671875-1.86767578125t1.53564453125-1.3115234375t2.13330078125-0.48974609375q0.7470703125,0,1.65185546875,0.22412109375t1.70166015625,0.6640625t1.328125,1.12060546875t0.53125,1.560546875q0,0.4150390625-0.14111328125,0.630859375t-0.57275390625,0.2158203125l-0.1826171875-0.033203125q0.4814453125,1.294921875,0.830078125,2.65625t0.6806640625,2.72265625q0.1328125,0.265625,0.19921875,0.47314453125t0.06640625,0.40673828125q0,0.265625-0.1494140625,0.43994140625t-0.39013671875,0.25732421875t-0.498046875,0.1162109375t-0.45654296875,0.033203125q-0.7138671875,0-1.07080078125-0.2490234375t-0.5146484375-0.6806640625t-0.19091796875-0.97119140625t-0.1328125-1.08740234375q-0.19921875,0.6474609375-0.52294921875,1.26171875t-0.763671875,1.10400390625t-1.03759765625,0.7802734375t-1.3447265625,0.29052734375q-1.095703125,0-1.8427734375-0.630859375t-1.20361328125-1.55224609375t-0.6640625-1.96728515625t-0.20751953125-1.9423828125z M62.148603515625,35.5751953125q0,0.6142578125,0.0830078125,1.294921875t0.27392578125,1.3447265625t0.48974609375,1.25341796875t0.7470703125,1.03759765625q0.8134765625-0.8798828125,1.20361328125-2.1416015625t0.697265625-2.43212890625t0.697265625-2.0087890625t1.20361328125-0.83837890625q0.5146484375,0,0.86328125,0.1826171875q-0.166015625-0.4150390625-0.5478515625-0.80517578125t-0.85498046875-0.7138671875t-0.9794921875-0.53125t-0.95458984375-0.20751953125q-0.1328125,0-0.30712890625,0.04150390625t-0.27392578125,0.00830078125q-0.6806640625,0.19921875-1.12060546875,0.68896484375t-0.7138671875,1.15380859375t-0.39013671875,1.361328125t-0.1162109375,1.3115234375z M80.689892578125,18.56689453125q-0.04150390625-0.50634765625,0.06640625-0.8798828125t0.431640625-0.6142578125t1.03759765625-0.24072265625l2.6728515625,0q0.5478515625,0,1.43603515625,0.05810546875t1.9091796875,0.17431640625t2.03369140625,0.35693359375t1.85107421875,0.59765625t1.361328125,0.8798828125t0.52294921875,1.23681640625q0,1.0126953125-0.58935546875,1.90087890625t-1.4775390625,1.60205078125t-1.8759765625,1.27001953125t-1.76806640625,1.00439453125q3.087890625,0.6806640625,4.8310546875,2.822265625t1.7431640625,5.345703125q0,1.693359375-0.6474609375,3.34521484375t-1.76806640625,2.97998046875t-2.65625,2.1416015625t-3.29541015625,0.8134765625q-0.232421875,0-0.52294921875-0.0498046875t-0.53125-0.15771484375t-0.4150390625-0.30712890625t-0.17431640625-0.5146484375q0-1.4609375,1.5771484375-1.4609375q0.265625,0,0.62255859375,0.07470703125t0.55615234375,0.30712890625q0.9130859375-0.3818359375,1.66845703125-1.2119140625t1.2783203125-1.85107421875t0.8134765625-2.1416015625t0.29052734375-2.03369140625q0-1.095703125-0.32373046875-2.23291015625t-0.93798828125-2.1083984375t-1.5107421875-1.63525390625t-2.05859375-0.830078125q-0.298828125-0.033203125-0.65576171875-0.0498046875l-0.7138671875-0.033203125t-0.697265625-0.099609375t-0.58935546875-0.265625q0.1328125,2.755859375,0.34033203125,5.4951171875t0.55615234375,5.4951171875q0.1328125,0.1328125,0.1826171875,0.39013671875t0.0830078125,0.5478515625t0.033203125,0.55615234375l0,0.4482421875q0,0.298828125-0.19921875,0.48974609375t-0.47314453125,0.30712890625t-0.5810546875,0.1494140625t-0.53955078125,0.033203125q-0.7470703125,0-1.1455078125-0.19921875t-0.564453125-0.5810546875t-0.2158203125-0.87158203125t-0.0830078125-1.07080078125q-0.4482421875-4.6318359375-0.6474609375-9.1640625t-0.19921875-9.1640625q0-0.5478515625-0.04150390625-1.05419921875z M83.752880859375,17.861328125q0,2.0419921875,0.1328125,4.09228515625t0.232421875,4.09228515625q0.7470703125-0.4482421875,1.958984375-1.05419921875t2.34912109375-1.33642578125t1.95068359375-1.6103515625t0.8134765625-1.9091796875q0-0.8134765625-0.962890625-1.23681640625t-2.2412109375-0.630859375t-2.49853515625-0.25732421875t-1.73486328125-0.1494140625z M98.25716796875,41.701171875q0-0.4814453125,0.04150390625-1.0126953125t0.07470703125-0.99609375l0.099609375-2.490234375q0.166015625-2.98828125,0.40673828125-5.876953125t0.40673828125-5.84375q0.099609375-1.626953125,0.1494140625-3.19580078125t0.1494140625-3.19580078125q-0.06640625-0.1328125-0.06640625-0.1826171875q0-0.232421875,0.17431640625-0.365234375t0.40673828125-0.22412109375t0.48974609375-0.12451171875t0.39013671875-0.033203125l0.3818359375,0q0.5146484375,0.06640625,0.7470703125,0.32373046875t0.298828125,0.6142578125t0.033203125,0.763671875t-0.033203125,0.75537109375q0,2.4072265625-0.1162109375,4.90576171875t-0.265625,5.013671875t-0.27392578125,5.0302734375t-0.12451171875,4.97216796875l0,1.162109375q0,0.7802734375-0.43994140625,1.029296875t-1.22021484375,0.2490234375q-0.6806640625,0-1.1953125-0.298828125t-0.5146484375-0.9794921875z M105.87180664062,35.8076171875q0-1.12890625,0.30712890625-2.1748046875t0.92138671875-1.86767578125t1.53564453125-1.3115234375t2.13330078125-0.48974609375q0.7470703125,0,1.65185546875,0.22412109375t1.70166015625,0.6640625t1.328125,1.12060546875t0.53125,1.560546875q0,0.4150390625-0.14111328125,0.630859375t-0.57275390625,0.2158203125l-0.1826171875-0.033203125q0.4814453125,1.294921875,0.830078125,2.65625t0.6806640625,2.72265625q0.1328125,0.265625,0.19921875,0.47314453125t0.06640625,0.40673828125q0,0.265625-0.1494140625,0.43994140625t-0.39013671875,0.25732421875t-0.498046875,0.1162109375t-0.45654296875,0.033203125q-0.7138671875,0-1.07080078125-0.2490234375t-0.5146484375-0.6806640625t-0.19091796875-0.97119140625t-0.1328125-1.08740234375q-0.19921875,0.6474609375-0.52294921875,1.26171875t-0.763671875,1.10400390625t-1.03759765625,0.7802734375t-1.3447265625,0.29052734375q-1.095703125,0-1.8427734375-0.630859375t-1.20361328125-1.55224609375t-0.6640625-1.96728515625t-0.20751953125-1.9423828125z M108.22922851562,35.5751953125q0,0.6142578125,0.0830078125,1.294921875t0.27392578125,1.3447265625t0.48974609375,1.25341796875t0.7470703125,1.03759765625q0.8134765625-0.8798828125,1.20361328125-2.1416015625t0.697265625-2.43212890625t0.697265625-2.0087890625t1.20361328125-0.83837890625q0.5146484375,0,0.86328125,0.1826171875q-0.166015625-0.4150390625-0.5478515625-0.80517578125t-0.85498046875-0.7138671875t-0.9794921875-0.53125t-0.95458984375-0.20751953125q-0.1328125,0-0.30712890625,0.04150390625t-0.27392578125,0.00830078125q-0.6806640625,0.19921875-1.12060546875,0.68896484375t-0.7138671875,1.15380859375t-0.39013671875,1.361328125t-0.1162109375,1.3115234375z M120.276484375,35.890625l0-0.4814453125q0-0.59765625,0.033203125-1.12890625q0.033203125-0.7470703125,0.033203125-1.228515625q0-0.265625,0.033203125-0.60595703125t0.166015625-0.53955078125q0.166015625-0.166015625,0.39013671875-0.34033203125t0.48974609375-0.17431640625q0.8466796875,0,1.328125,0.19091796875t0.5146484375,0.78857421875l0.06640625,0.5146484375q0.298828125-0.7138671875,0.796875-1.76806640625t1.15380859375-2.0087890625t1.4775390625-1.626953125t1.73486328125-0.67236328125q0.8466796875,0,1.39453125,0.796875t0.87158203125,2.03369140625t0.45654296875,2.755859375t0.1826171875,2.97998046875t0.06640625,2.66455078125t0.1162109375,1.81787109375q0.06640625,0.5146484375,0.22412109375,1.08740234375t0.15771484375,1.05419921875q0,0.1328125-0.19091796875,0.25732421875t-0.40673828125,0.20751953125t-0.43994140625,0.1328125t-0.32373046875,0.0498046875q-0.6474609375,0-0.92138671875-0.97119140625t-0.34033203125-2.43212890625t-0.06640625-3.16259765625t-0.1162109375-3.16259765625t-0.47314453125-2.43212890625t-1.13720703125-1.00439453125q-0.7138671875,0-1.4775390625,0.92138671875t-1.3115234375,2.44873046875q-0.53125,1.52734375-0.73046875,3.4697265625q-0.06640625,0.6142578125-0.06640625,1.228515625q0,1.3447265625,0.2822265625,2.689453125q0.033203125,0.232421875-0.19091796875,0.3486328125t-0.55615234375,0.1826171875t-0.67236328125,0.0830078125t-0.52294921875,0.0166015625q-0.6474609375,0-1.03759765625-0.45654296875t-0.60595703125-1.17041015625t-0.29052734375-1.60205078125t-0.09130859375-1.75146484375z M135.36182617187,35.4755859375q0-1.1953125,0.30712890625-2.39892578125t0.95458984375-2.158203125t1.65185546875-1.55224609375t2.36572265625-0.59765625q0.5810546875,0,1.2783203125,0.14111328125t1.28662109375,0.4482421875t0.99609375,0.796875t0.40673828125,1.20361328125q0,0.4482421875-0.232421875,0.59765625t-0.6142578125,0.1494140625l-0.1162109375-0.166015625t-0.32373046875-0.42333984375t-0.43994140625-0.5478515625t-0.4482421875-0.48974609375q-0.6806640625-0.6806640625-1.2783203125-0.73046875l-0.1328125,0q-0.498046875,0-0.9296875,0.298828125q-0.4814453125,0.365234375-0.85498046875,1.029296875t-0.62255859375,1.4111328125t-0.39013671875,1.5107421875t-0.14111328125,1.26171875q0,0.6806640625,0.15771484375,1.55224609375t0.53125,1.65185546875t0.9462890625,1.3115234375t1.46923828125,0.53125q0.8134765625,0,1.4775390625-0.3984375t1.27001953125-0.88818359375t1.18701171875-0.8798828125t1.1953125-0.39013671875q0.265625,0,0.53955078125,0.06640625t0.27392578125,0.3486328125l0,0.099609375q-0.298828125,0.7802734375-1.0126953125,1.3779296875t-1.60205078125,1.03759765625t-1.8427734375,0.65576171875t-1.70166015625,0.2158203125q-1.39453125,0-2.44873046875-0.45654296875t-1.75146484375-1.25341796875t-1.05419921875-1.91748046875t-0.35693359375-2.44873046875z M149.84951171875,35.8076171875q0-1.12890625,0.30712890625-2.1748046875t0.92138671875-1.86767578125t1.53564453125-1.3115234375t2.13330078125-0.48974609375q0.7470703125,0,1.65185546875,0.22412109375t1.70166015625,0.6640625t1.328125,1.12060546875t0.53125,1.560546875q0,0.4150390625-0.14111328125,0.630859375t-0.57275390625,0.2158203125l-0.1826171875-0.033203125q0.4814453125,1.294921875,0.830078125,2.65625t0.6806640625,2.72265625q0.1328125,0.265625,0.19921875,0.47314453125t0.06640625,0.40673828125q0,0.265625-0.1494140625,0.43994140625t-0.39013671875,0.25732421875t-0.498046875,0.1162109375t-0.45654296875,0.033203125q-0.7138671875,0-1.07080078125-0.2490234375t-0.5146484375-0.6806640625t-0.19091796875-0.97119140625t-0.1328125-1.08740234375q-0.19921875,0.6474609375-0.52294921875,1.26171875t-0.763671875,1.10400390625t-1.03759765625,0.7802734375t-1.3447265625,0.29052734375q-1.095703125,0-1.8427734375-0.630859375t-1.20361328125-1.55224609375t-0.6640625-1.96728515625t-0.20751953125-1.9423828125z M152.20693359375,35.5751953125q0,0.6142578125,0.0830078125,1.294921875t0.27392578125,1.3447265625t0.48974609375,1.25341796875t0.7470703125,1.03759765625q0.8134765625-0.8798828125,1.20361328125-2.1416015625t0.697265625-2.43212890625t0.697265625-2.0087890625t1.20361328125-0.83837890625q0.5146484375,0,0.86328125,0.1826171875q-0.166015625-0.4150390625-0.5478515625-0.80517578125t-0.85498046875-0.7138671875t-0.9794921875-0.53125t-0.95458984375-0.20751953125q-0.1328125,0-0.30712890625,0.04150390625t-0.27392578125,0.00830078125q-0.6806640625,0.19921875-1.12060546875,0.68896484375t-0.7138671875,1.15380859375t-0.39013671875,1.361328125t-0.1162109375,1.3115234375z"/><path fill="#" d=""/></svg>
